<?xml version="1.0" standalone="no"?>
<!DOCTYPE svg PUBLIC "-//W3C//DTD SVG 20010904//EN"
 "http://www.w3.org/TR/2001/REC-SVG-20010904/DTD/svg10.dtd">
<svg version="1.0" xmlns="http://www.w3.org/2000/svg"
 width="16.000000pt" height="16.000000pt" viewBox="0 0 16.000000 16.000000"
 preserveAspectRatio="xMidYMid meet">
<metadata>
Created by potrace 1.11, written by Peter Selinger 2001-2013
</metadata>
<g transform="translate(0.000000,16.000000) scale(0.003837,-0.003837)"
fill="#000000" stroke="none">
<path d="M1698 4151 c-26 -10 -77 -39 -115 -63 -100 -66 -142 -79 -275 -88
-173 -11 -204 -28 -342 -195 -48 -58 -123 -108 -201 -136 -160 -56 -205 -103
-269 -280 -25 -68 -72 -135 -130 -182 -156 -129 -180 -171 -190 -341 -8 -119
-30 -185 -95 -285 -85 -130 -96 -206 -51 -349 27 -88 27 -199 -2 -288 -27 -85
-29 -191 -4 -249 9 -21 37 -69 61 -105 60 -88 83 -158 91 -276 10 -168 35
-216 166 -321 80 -64 137 -144 168 -238 41 -123 110 -195 223 -234 127 -44
184 -87 301 -225 69 -82 125 -106 271 -117 127 -9 197 -31 276 -86 127 -87
220 -103 349 -62 89 29 221 29 310 0 77 -25 170 -27 231 -6 23 9 72 36 108 60
90 61 161 84 294 94 158 13 206 37 297 152 83 103 150 148 305 204 70 26 147
104 170 175 43 133 117 236 226 315 87 65 116 129 129 290 11 133 27 182 92
282 85 130 96 197 56 327 -31 98 -31 235 0 330 25 78 28 156 8 213 -7 21 -36
73 -64 116 -66 100 -81 149 -92 285 -12 149 -33 198 -126 278 -135 116 -185
188 -229 324 -23 71 -100 149 -170 174 -155 56 -212 96 -332 232 -83 95 -123
113 -272 124 -138 10 -187 26 -286 90 -129 85 -214 99 -341 58 -50 -16 -94
-22 -159 -22 -65 0 -109 6 -159 22 -82 27 -164 28 -228 3z m397 -372 c11 -11
18 -149 7 -149 -10 0 -14 22 -24 108 -6 48 -23 19 -26 -43 -4 -85 -20 -84 -24
3 -2 52 -6 67 -18 67 -12 0 -15 -14 -15 -65 -1 -80 -3 -89 -15 -70 -13 20 -13
116 0 140 9 16 20 19 60 17 27 -2 52 -6 55 -8z m63 -56 c-3 -58 -1 -68 15 -71
15 -3 17 5 17 62 0 36 5 68 10 71 6 4 10 -21 10 -69 0 -64 -3 -77 -19 -86 -23
-12 -47 -5 -55 17 -9 22 5 143 16 143 6 0 8 -29 6 -67z m-230 45 c15 -19 27
-148 14 -148 -6 0 -14 29 -17 65 -7 63 -19 86 -35 69 -4 -5 -4 -36 0 -69 4
-33 4 -64 -1 -69 -8 -10 -14 11 -24 87 -4 33 -11 47 -22 47 -13 0 -14 -11 -8
-70 5 -46 3 -70 -3 -70 -12 0 -27 122 -19 144 5 13 24 18 88 24 9 1 21 -4 27
-10z m382 -3 c15 -18 4 -155 -12 -155 -7 0 -8 24 -4 69 4 43 3 72 -3 75 -15
10 -31 -27 -31 -71 0 -37 -14 -73 -24 -63 -10 10 13 143 26 151 19 13 34 11
48 -6z m66 -18 c-3 -13 -8 -49 -12 -80 -4 -34 -12 -57 -19 -57 -9 0 -10 14 -3
58 12 85 17 102 29 102 7 0 9 -10 5 -23z m-612 -9 c8 -13 18 -46 22 -75 6 -45
4 -52 -15 -62 -31 -17 -57 15 -66 80 -6 44 -5 55 11 66 24 18 31 17 48 -9z
m696 12 c12 -8 12 -10 -2 -15 -10 -4 -20 -29 -28 -71 -7 -35 -16 -64 -21 -64
-12 0 -11 18 2 82 9 39 9 53 0 56 -6 2 -11 8 -11 13 0 12 41 11 60 -1z m46
-46 c-6 -31 -5 -35 10 -32 10 2 21 14 24 27 3 14 11 26 17 28 17 6 -3 -59 -23
-74 -8 -6 -19 -24 -23 -39 -4 -15 -12 -29 -19 -32 -8 -2 -8 6 -2 29 6 20 6 38
-1 51 -12 22 -3 78 13 78 6 0 8 -14 4 -36z m-839 11 c3 -9 2 -19 -2 -23 -4 -4
-10 -1 -12 6 -7 19 -33 14 -33 -7 0 -22 20 -83 31 -95 5 -5 14 3 20 20 12 28
13 29 17 5 5 -32 -22 -59 -46 -45 -20 13 -48 113 -39 137 8 21 56 22 64 2z
m1027 -31 c20 -19 20 -34 1 -60 -8 -12 -12 -24 -9 -26 2 -3 0 -17 -5 -32 -8
-20 -17 -26 -40 -26 -16 0 -33 4 -36 10 -3 5 4 41 16 80 24 74 41 86 73 54z
m-1176 -6 c18 -18 15 -67 -4 -75 -12 -4 -14 -14 -9 -39 11 -61 -13 -36 -38 40
-23 68 -24 75 -9 79 31 8 48 7 60 -5z m1230 -71 c-25 -63 -27 -82 -9 -82 7 0
24 28 38 63 15 38 29 60 35 54 5 -5 -4 -36 -21 -75 -32 -70 -54 -84 -82 -51
-10 13 -10 22 1 52 27 77 41 103 50 97 5 -3 1 -28 -12 -58z m-1310 -11 c12
-32 20 -66 17 -77 -7 -22 -47 -26 -62 -6 -16 20 -54 120 -48 125 9 9 21 -10
40 -61 17 -46 38 -67 52 -53 3 3 -4 29 -16 58 -13 29 -25 59 -28 67 -4 9 -1
12 8 9 7 -2 24 -30 37 -62z m1415 -14 c-29 -70 -56 -117 -60 -105 -6 17 57
154 68 148 4 -3 1 -22 -8 -43z m-1537 20 c-4 -11 5 -44 19 -76 28 -63 29 -66
17 -66 -5 0 -21 27 -37 60 -16 33 -35 60 -42 60 -19 0 -16 17 5 29 28 17 44
13 38 -7z m1571 -68 c-23 -48 -28 -68 -19 -71 13 -5 17 -23 4 -23 -5 0 -16 6
-26 13 -17 12 -16 17 15 80 18 37 39 67 46 67 8 0 2 -23 -20 -66z m-1608 -24
c34 -67 35 -70 21 -70 -6 0 -16 11 -22 25 -6 14 -18 25 -26 25 -14 0 -14 -3 5
-62 3 -10 1 -18 -4 -18 -14 0 -77 136 -69 149 4 6 20 11 36 11 25 0 33 -8 59
-60z m1735 34 c21 -21 20 -30 -11 -83 -37 -64 -53 -73 -87 -48 -17 13 -17 15
4 58 48 93 63 105 94 73z m-1829 -79 c19 -30 35 -59 35 -65 0 -18 -16 -11 -30
15 -14 26 -40 34 -40 12 0 -7 7 -23 16 -35 18 -25 12 -41 -8 -24 -7 6 -26 35
-43 65 -25 47 -27 57 -16 71 25 30 50 18 86 -39z m1913 33 c18 -18 15 -30 -6
-24 -23 8 -50 -31 -27 -40 20 -8 8 -26 -13 -19 -11 3 -22 -3 -29 -15 -11 -16
-10 -21 5 -29 20 -11 10 -26 -13 -17 -30 11 -26 35 15 95 43 64 49 68 68 49z
m-2043 -38 c-3 -5 11 -34 31 -64 20 -30 34 -61 32 -68 -2 -6 -23 16 -47 50
-23 34 -45 61 -49 61 -23 -4 -24 4 -2 20 24 19 46 19 35 1z m2117 -17 c30 -27
26 -39 -49 -131 -25 -31 -31 -14 -7 22 23 37 -3 47 -31 12 -13 -16 -25 -24
-28 -19 -7 10 74 132 87 133 5 0 18 -7 28 -17z m-2163 -36 c14 -18 2 -30 -16
-15 -10 8 -17 8 -25 0 -9 -9 -2 -15 28 -27 58 -23 69 -30 73 -50 5 -26 -26
-47 -50 -34 -28 15 -23 30 7 23 48 -12 21 19 -29 35 -28 9 -49 22 -53 33 -12
38 40 65 65 35z m2245 -23 c20 -8 22 -64 3 -64 -8 0 -13 9 -13 20 1 10 -3 19
-9 20 -5 0 -11 -22 -13 -50 -2 -36 -8 -53 -22 -60 -37 -20 -69 14 -49 51 13
24 29 16 22 -11 -4 -14 0 -20 11 -20 12 0 16 10 16 48 0 61 16 80 54 66z
m-1667 -228 c28 -24 28 -26 31 -154 3 -102 0 -136 -12 -160 -19 -36 -60 -54
-117 -50 l-44 3 -3 180 c-1 98 0 185 2 192 4 8 25 13 60 13 44 0 61 -5 83 -24z
m223 -1 c0 -22 -4 -25 -40 -25 l-40 0 0 -60 0 -60 40 0 c36 0 40 -2 40 -25 0
-22 -4 -25 -40 -25 l-40 0 0 -60 0 -60 40 0 c36 0 40 -2 40 -25 0 -24 -3 -25
-53 -25 -29 0 -58 5 -65 12 -13 13 -18 331 -6 362 5 12 21 16 65 16 56 0 59
-1 59 -25z m221 -4 l30 -30 -3 -163 c-3 -160 -3 -163 -25 -166 -22 -3 -23 -2
-25 159 -3 141 -5 163 -20 173 -13 8 -23 8 -35 0 -16 -10 -19 -33 -23 -170 -5
-156 -5 -159 -27 -162 l-23 -3 0 166 0 167 29 29 c40 39 82 39 122 0z m209 4
c0 -20 -5 -25 -25 -25 l-25 0 0 -171 0 -170 -22 3 c-23 3 -23 5 -26 171 -2
157 -4 167 -22 167 -22 0 -34 15 -26 35 4 11 23 15 76 15 68 0 70 -1 70 -25z
m179 -1 l31 -26 0 -138 c0 -122 -2 -140 -20 -163 -26 -33 -70 -43 -108 -23
-45 23 -54 58 -50 201 3 125 3 127 31 151 37 31 78 31 116 -2z m248 2 l28 -24
0 -169 c0 -166 0 -168 -22 -171 -22 -3 -23 -2 -25 159 -3 141 -5 163 -20 173
-13 8 -23 8 -35 0 -16 -10 -19 -33 -23 -170 -5 -156 -5 -159 -27 -162 l-23 -3
0 166 0 167 29 29 c37 36 79 38 118 5z m-1857 9 c0 -2 -28 -39 -63 -82 -79
-98 -142 -200 -204 -328 -26 -55 -49 -92 -51 -83 -4 18 80 188 135 275 74 119
183 248 183 218z m2621 -57 c29 -35 76 -100 105 -144 62 -94 160 -291 151
-301 -8 -8 -2 -18 -60 102 -50 102 -168 287 -233 363 -20 23 -32 42 -26 42 6
0 35 -28 63 -62z m-2371 -78 c0 -5 -4 -10 -10 -10 -15 0 -12 -40 3 -41 10 0
10 -2 0 -6 -15 -6 -17 -43 -3 -43 6 0 10 -4 10 -10 0 -5 -9 -10 -20 -10 -18 0
-20 7 -20 65 0 58 2 65 20 65 11 0 20 -4 20 -10z m70 -5 c7 -9 9 -19 5 -23 -4
-4 -10 -1 -12 6 -5 13 -33 17 -33 5 1 -5 12 -21 25 -37 18 -23 21 -34 14 -48
-13 -24 -36 -23 -49 2 -7 14 -7 20 0 20 5 0 10 -4 10 -10 0 -5 7 -10 15 -10
20 0 19 7 -5 37 -20 26 -26 54 -13 66 11 12 30 8 43 -8z m56 -1 c-3 -9 -6 -38
-6 -65 0 -27 -4 -49 -10 -49 -5 0 -10 24 -10 53 0 29 -5 58 -12 65 -9 9 -6 12
16 12 22 0 27 -4 22 -16z m79 -49 c0 -58 -1 -60 -27 -63 l-28 -3 0 66 0 66 28
-3 c26 -3 27 -5 27 -63z m1649 48 c4 -10 -3 -31 -19 -52 l-25 -36 25 -3 c35
-5 31 -22 -5 -22 -37 0 -40 27 -9 72 23 31 19 49 -6 28 -12 -10 -15 -10 -15 2
0 31 43 40 54 11z m81 -48 c0 -57 -1 -60 -25 -60 -23 0 -25 4 -28 49 -4 62 2
78 30 74 21 -3 23 -8 23 -63z m55 0 c0 -37 -4 -65 -10 -65 -5 0 -10 24 -10 53
0 29 -5 58 -12 65 -9 9 -7 12 10 12 20 0 22 -5 22 -65z m80 59 c0 -3 -9 -19
-21 -35 -11 -16 -16 -29 -10 -29 5 0 13 5 16 10 4 6 13 4 23 -7 12 -12 13 -18
4 -21 -6 -2 -12 -12 -12 -23 0 -10 -4 -19 -10 -19 -5 0 -10 9 -10 20 0 13 -7
20 -20 20 -26 0 -25 16 3 57 20 30 37 42 37 27z m-2260 -599 l0 -65 -70 0 -70
0 0 -320 0 -320 -65 0 -65 0 0 320 0 320 -70 0 -70 0 0 65 0 65 205 0 205 0 0
-65z m410 0 l0 -65 -115 0 -115 0 0 -95 0 -95 90 0 90 0 0 -65 0 -65 -90 0
-90 0 0 -95 0 -95 115 0 115 0 0 -65 0 -65 -180 0 -180 0 0 385 0 385 180 0
180 0 0 -65z m381 52 c30 -23 39 -56 39 -140 l0 -84 -57 -12 c-31 -6 -60 -11
-65 -11 -4 0 -8 29 -8 65 l0 65 -50 0 -50 0 0 -255 0 -255 50 0 50 0 0 75 0
74 38 10 c20 5 50 12 65 15 l29 7 -4 -137 c-4 -178 0 -174 -181 -174 -120 0
-133 2 -154 22 l-23 21 0 343 0 343 26 20 c24 19 40 21 153 21 83 -1 131 -5
142 -13z m249 -147 l0 -160 50 0 50 0 0 160 0 160 65 0 65 0 0 -385 0 -385
-65 0 -65 0 0 160 0 160 -50 0 -50 0 0 -160 0 -160 -65 0 -65 0 0 385 0 385
65 0 65 0 0 -160z m524 -30 l59 -185 61 188 60 187 63 0 63 0 0 -385 0 -385
-65 0 -65 0 -2 183 -3 182 -24 -92 -25 -93 -62 0 -63 0 -15 55 c-9 30 -19 68
-22 85 -16 76 -24 27 -24 -139 l0 -181 -65 0 -65 0 0 385 0 386 67 -3 67 -3
60 -185z m506 -195 l0 -385 -65 0 -65 0 0 385 0 385 65 0 65 0 0 -385z m210
65 l0 -320 95 0 95 0 0 -65 0 -65 -160 0 -160 0 0 385 0 385 65 0 65 0 0 -320z
m380 0 l0 -320 90 0 90 0 0 -65 0 -65 -155 0 -155 0 0 385 0 385 65 0 65 0 0
-320z m-340 -850 l0 -180 -325 0 -325 0 0 -375 0 -375 -22 -9 c-13 -4 -38 -11
-55 -14 l-33 -6 0 399 0 400 -55 0 -55 0 0 -410 c0 -384 -1 -410 -17 -410 -10
0 -35 -3 -55 -6 l-38 -7 0 417 0 417 -57 -3 -58 -3 -3 -412 -2 -413 -55 0 -55
0 0 415 0 415 -55 0 -55 0 0 -411 0 -410 -47 7 c-27 3 -51 8 -55 11 -5 2 -8
184 -8 404 l0 400 -57 -3 -58 -3 -3 -384 -2 -383 -28 5 c-15 3 -39 10 -54 16
l-28 11 0 370 0 370 -55 0 -55 0 0 -350 c0 -192 -2 -350 -5 -350 -3 0 -28 11
-55 25 l-50 25 0 325 0 325 -55 0 -55 0 -2 -294 -3 -294 -52 31 -53 32 0 262
0 262 -52 4 c-29 2 341 4 822 4 l875 -1 3 167 2 167 225 0 225 0 0 -180z
m-694 -56 c-3 -9 -6 -30 -6 -47 l0 -32 -735 0 -735 0 0 32 c0 17 -3 38 -6 47
-6 15 64 16 741 16 677 0 747 -1 741 -16z m-1560 -167 c2 -7 3 -86 2 -176 l-3
-163 -93 94 c-88 89 -202 229 -202 249 0 15 290 12 296 -4z m2604 5 c0 -13
-163 -212 -214 -262 l-46 -44 0 150 c0 83 3 154 7 157 9 10 253 9 253 -1z
m-540 -291 l0 -229 -64 -36 c-36 -20 -94 -50 -130 -66 l-66 -29 0 294 0 295
130 0 130 0 0 -229z"/>
<path d="M1725 3731 c-6 -10 -1 -48 11 -93 3 -10 12 -18 20 -18 12 0 14 9 8
48 -7 50 -26 82 -39 63z"/>
<path d="M2657 3673 c-4 -3 -7 -15 -7 -25 0 -21 25 -24 33 -4 6 16 -16 40 -26
29z"/>
<path d="M2630 3602 c0 -6 -3 -17 -6 -26 -4 -12 0 -16 16 -16 16 0 21 5 18 22
-3 21 -28 39 -28 20z"/>
<path d="M1470 3662 c0 -22 13 -42 27 -42 21 0 12 44 -9 48 -10 2 -18 -1 -18
-6z"/>
<path d="M1200 3543 c0 -5 6 -16 14 -25 15 -20 38 -5 29 18 -5 14 -43 20 -43
7z"/>
<path d="M2955 3489 c-18 -33 -24 -54 -17 -61 6 -6 16 0 29 19 38 53 44 70 29
82 -10 8 -19 0 -41 -40z"/>
<path d="M1116 3491 c-8 -13 20 -45 33 -37 8 5 8 13 1 27 -11 20 -25 25 -34
10z"/>
<path d="M3131 3411 c-8 -14 -7 -20 3 -24 17 -7 40 18 31 33 -10 15 -23 12
-34 -9z"/>
<path d="M1490 2985 l0 -145 24 0 c47 0 56 22 56 141 0 126 -8 149 -50 149
l-30 0 0 -145z"/>
<path d="M2336 3114 c-23 -23 -23 -235 0 -258 8 -9 21 -16 28 -16 30 0 36 25
36 145 0 120 -6 145 -36 145 -7 0 -20 -7 -28 -16z"/>
<path d="M1230 2975 c0 -33 4 -45 13 -42 7 2 12 20 12 42 0 22 -5 40 -12 43
-9 2 -13 -10 -13 -43z"/>
<path d="M2960 2998 c0 -19 2 -20 10 -8 13 19 13 30 0 30 -5 0 -10 -10 -10
-22z"/>
<path d="M2967 2956 c-4 -10 -5 -21 -2 -24 9 -9 17 6 13 25 -3 17 -4 17 -11
-1z"/>
<path d="M2780 1335 l0 -65 45 0 45 0 0 65 0 65 -45 0 -45 0 0 -65z"/>
<path d="M2920 1335 l0 -65 45 0 45 0 0 65 0 65 -45 0 -45 0 0 -65z"/>
<path d="M3050 1335 l0 -65 45 0 45 0 0 65 0 65 -45 0 -45 0 0 -65z"/>
<path d="M1140 1234 c0 -24 2 -25 53 -22 45 3 52 6 55 26 3 21 0 22 -52 22
-53 0 -56 -1 -56 -26z"/>
<path d="M1362 1238 c3 -20 10 -23 56 -26 50 -3 52 -2 52 22 0 25 -3 26 -56
26 -52 0 -55 -1 -52 -22z"/>
<path d="M1590 1235 c0 -23 3 -25 50 -25 47 0 50 2 50 25 0 23 -3 25 -50 25
-47 0 -50 -2 -50 -25z"/>
<path d="M1810 1234 c0 -24 2 -25 53 -22 45 3 52 6 55 26 3 21 0 22 -52 22
-53 0 -56 -1 -56 -26z"/>
<path d="M2032 1238 c3 -20 10 -23 56 -26 50 -3 52 -2 52 22 0 25 -3 26 -56
26 -52 0 -55 -1 -52 -22z"/>
<path d="M2260 1235 c0 -23 3 -25 50 -25 47 0 50 2 50 25 0 23 -3 25 -50 25
-47 0 -50 -2 -50 -25z"/>
</g>
</svg>
